<?xml version="1.0" encoding="iso-8859-1"?>
<svg version="1.1" id="Layer_1" xmlns="http://www.w3.org/2000/svg" xmlns:xlink="http://www.w3.org/1999/xlink" x="0px" y="0px"
	 viewBox="0 0 512 512" style="enable-background:new 0 0 512 512;" xml:space="preserve">
<g transform="translate(1 1)">
	<g>
		<path style="fill:#FFDD09;" d="M340.333,511c-5.12,0-8.533-3.413-8.533-8.533v-85.333c0-5.12,3.413-8.533,8.533-8.533
			c5.12,0,8.533,3.413,8.533,8.533v85.333C348.867,507.587,345.453,511,340.333,511z"/>
		<path style="fill:#FFDD09;" d="M365.933,511c-5.12,0-8.533-3.413-8.533-8.533v-76.8c0-5.12,3.413-8.533,8.533-8.533
			s8.533,3.413,8.533,8.533v76.8C374.467,507.587,371.053,511,365.933,511z"/>
		<path style="fill:#FFDD09;" d="M391.533,511c-5.12,0-8.533-3.413-8.533-8.533V434.2c0-5.12,3.413-8.533,8.533-8.533
			s8.533,3.413,8.533,8.533v68.267C400.067,507.587,396.653,511,391.533,511z"/>
		<path style="fill:#FFDD09;" d="M417.133,511c-5.12,0-8.533-3.413-8.533-8.533v-59.733c0-5.12,3.413-8.533,8.533-8.533
			s8.533,3.413,8.533,8.533v59.733C425.667,507.587,422.253,511,417.133,511z"/>
		<path style="fill:#FFDD09;" d="M442.733,511c-5.12,0-8.533-3.413-8.533-8.533v-59.733c0-5.12,3.413-8.533,8.533-8.533
			c5.12,0,8.533,3.413,8.533,8.533v59.733C451.267,507.587,447.853,511,442.733,511z"/>
		<polygon style="fill:#FFDD09;" points="442.733,212.333 442.733,442.733 323.267,408.6 323.267,212.333 		"/>
	</g>
	<polygon style="fill:#FD9808;" points="417.133,212.333 417.133,435.053 442.733,442.733 442.733,212.333 	"/>
	<g>
		<polygon style="fill:#FFDD09;" points="442.733,212.333 442.733,435.053 468.333,442.733 468.333,212.333 		"/>
		<path style="fill:#FFDD09;" d="M468.333,92.867c18.773,0,34.133,15.36,34.133,34.133v51.2c0,18.773-15.36,34.133-34.133,34.133
			H41.667c-18.773,0-34.133-15.36-34.133-34.133V127c0-18.773,15.36-34.133,34.133-34.133c-18.773,0-34.133-15.36-34.133-34.133
			V41.667c0-18.773,15.36-34.133,34.133-34.133h426.667c18.773,0,34.133,15.36,34.133,34.133v17.067
			C502.467,77.507,487.107,92.867,468.333,92.867L468.333,92.867z"/>
	</g>
	<path style="fill:#FD9808;" d="M502.467,58.733V41.667c0-18.773-15.36-34.133-34.133-34.133h-25.6
		c18.773,0,34.133,15.36,34.133,34.133v17.067c0,18.773-15.36,34.133-34.133,34.133l0,0c18.773,0,34.133,15.36,34.133,34.133v51.2
		c0,18.773-15.36,34.133-34.133,34.133h25.6c18.773,0,34.133-15.36,34.133-34.133V127c0-18.773-15.36-34.133-34.133-34.133l0,0
		C487.107,92.867,502.467,77.507,502.467,58.733"/>
	<path style="fill:#FFFFFF;" d="M7.533,58.733V41.667c0-18.773,15.36-34.133,34.133-34.133h25.6
		c-18.773,0-34.133,15.36-34.133,34.133v17.067c0,18.773,15.36,34.133,34.133,34.133l0,0c-18.773,0-34.133,15.36-34.133,34.133v51.2
		c0,18.773,15.36,34.133,34.133,34.133h-25.6c-18.773,0-34.133-15.36-34.133-34.133V127c0-18.773,15.36-34.133,34.133-34.133l0,0
		C22.893,92.867,7.533,77.507,7.533,58.733"/>
	<path d="M468.333,220.867H41.667C17.773,220.867-1,202.093-1,178.2V127c0-13.653,6.827-26.453,17.067-34.133
		C5.827,85.187-1,72.387-1,58.733V41.667C-1,17.773,17.773-1,41.667-1h426.667C492.227-1,511,17.773,511,41.667v17.067
		c0,13.653-6.827,26.453-17.067,34.133C504.173,100.547,511,113.347,511,127v51.2C511,202.093,492.227,220.867,468.333,220.867z
		 M50.2,92.867c0,5.12-3.413,8.533-8.533,8.533c-14.507,0-25.6,11.093-25.6,25.6v51.2c0,14.507,11.093,25.6,25.6,25.6h426.667
		c14.507,0,25.6-11.093,25.6-25.6V127c0-14.507-11.093-25.6-25.6-25.6l0,0c-5.12,0-8.533-3.413-8.533-8.533s3.413-8.533,8.533-8.533
		c14.507,0,25.6-11.093,25.6-25.6V41.667c0-14.507-11.093-25.6-25.6-25.6H41.667c-14.507,0-25.6,11.093-25.6,25.6v17.067
		c0,14.507,11.093,25.6,25.6,25.6C46.787,84.333,50.2,87.747,50.2,92.867z"/>
	<path d="M92.867,101.4h-51.2c-5.12,0-8.533-3.413-8.533-8.533s3.413-8.533,8.533-8.533h51.2c5.12,0,8.533,3.413,8.533,8.533
		S97.987,101.4,92.867,101.4z"/>
	<path d="M468.333,101.4h-51.2c-5.12,0-8.533-3.413-8.533-8.533s3.413-8.533,8.533-8.533h51.2c5.12,0,8.533,3.413,8.533,8.533
		S473.453,101.4,468.333,101.4z"/>
	<path d="M442.733,451.267c-0.853,0-1.707,0-2.56,0l-119.467-34.133c-3.413-0.853-5.973-4.267-5.973-8.533V212.333
		c0-5.12,3.413-8.533,8.533-8.533h119.467c5.12,0,8.533,3.413,8.533,8.533v230.4c0,2.56-0.853,5.12-3.413,6.827
		C446.147,450.413,444.44,451.267,442.733,451.267z M331.8,401.773l102.4,29.013v-209.92H331.8V401.773z"/>
	<path d="M331.8,511c-5.12,0-8.533-3.413-8.533-8.533v-85.333c0-5.12,3.413-8.533,8.533-8.533s8.533,3.413,8.533,8.533v85.333
		C340.333,507.587,336.92,511,331.8,511z"/>
	<path d="M357.4,511c-5.12,0-8.533-3.413-8.533-8.533v-76.8c0-5.12,3.413-8.533,8.533-8.533s8.533,3.413,8.533,8.533v76.8
		C365.933,507.587,362.52,511,357.4,511z"/>
	<path d="M383,511c-5.12,0-8.533-3.413-8.533-8.533V434.2c0-5.12,3.413-8.533,8.533-8.533c5.12,0,8.533,3.413,8.533,8.533v68.267
		C391.533,507.587,388.12,511,383,511z"/>
	<path d="M408.6,511c-5.12,0-8.533-3.413-8.533-8.533v-59.733c0-5.12,3.413-8.533,8.533-8.533c5.12,0,8.533,3.413,8.533,8.533
		v59.733C417.133,507.587,413.72,511,408.6,511z"/>
	<path d="M434.2,511c-5.12,0-8.533-3.413-8.533-8.533v-59.733c0-5.12,3.413-8.533,8.533-8.533c5.12,0,8.533,3.413,8.533,8.533
		v59.733C442.733,507.587,439.32,511,434.2,511z"/>
	<path d="M365.933,280.6c-5.12,0-8.533-3.413-8.533-8.533v-59.733c0-5.12,3.413-8.533,8.533-8.533s8.533,3.413,8.533,8.533v59.733
		C374.467,277.187,371.053,280.6,365.933,280.6z"/>
	<path d="M400.067,314.733c-5.12,0-8.533-3.413-8.533-8.533v-93.867c0-5.12,3.413-8.533,8.533-8.533s8.533,3.413,8.533,8.533V306.2
		C408.6,311.32,405.187,314.733,400.067,314.733z"/>
	<path d="M365.933,383c-5.12,0-8.533-3.413-8.533-8.533v-51.2c0-5.12,3.413-8.533,8.533-8.533s8.533,3.413,8.533,8.533v51.2
		C374.467,379.587,371.053,383,365.933,383z"/>
	<path d="M84.333,178.2h-76.8c-5.12,0-8.533-3.413-8.533-8.533c0-5.12,3.413-8.533,8.533-8.533h76.8c5.12,0,8.533,3.413,8.533,8.533
		C92.867,174.787,89.453,178.2,84.333,178.2z"/>
	<path d="M135.533,144.067h-128c-5.12,0-8.533-3.413-8.533-8.533S2.413,127,7.533,127h128c5.12,0,8.533,3.413,8.533,8.533
		S140.653,144.067,135.533,144.067z"/>
	<path d="M502.467,144.067h-76.8c-5.12,0-8.533-3.413-8.533-8.533s3.413-8.533,8.533-8.533h76.8c5.12,0,8.533,3.413,8.533,8.533
		S507.587,144.067,502.467,144.067z"/>
	<path d="M502.467,178.2h-128c-5.12,0-8.533-3.413-8.533-8.533c0-5.12,3.413-8.533,8.533-8.533h128c5.12,0,8.533,3.413,8.533,8.533
		C511,174.787,507.587,178.2,502.467,178.2z"/>
	<path d="M502.467,50.2H383c-5.12,0-8.533-3.413-8.533-8.533s3.413-8.533,8.533-8.533h119.467c5.12,0,8.533,3.413,8.533,8.533
		S507.587,50.2,502.467,50.2z"/>
	<path d="M58.733,67.267h-51.2C2.413,67.267-1,63.853-1,58.733S2.413,50.2,7.533,50.2h51.2c5.12,0,8.533,3.413,8.533,8.533
		S63.853,67.267,58.733,67.267z"/>
	<path d="M323.267,144.067h-102.4c-5.12,0-8.533-3.413-8.533-8.533s3.413-8.533,8.533-8.533h102.4c5.12,0,8.533,3.413,8.533,8.533
		S328.387,144.067,323.267,144.067z"/>
	<path d="M289.133,178.2H152.6c-5.12,0-8.533-3.413-8.533-8.533c0-5.12,3.413-8.533,8.533-8.533h136.533
		c5.12,0,8.533,3.413,8.533,8.533C297.667,174.787,294.253,178.2,289.133,178.2z"/>
	<path d="M280.6,67.267H144.067c-5.12,0-8.533-3.413-8.533-8.533s3.413-8.533,8.533-8.533H280.6c5.12,0,8.533,3.413,8.533,8.533
		S285.72,67.267,280.6,67.267z"/>
</g>
<g>
</g>
<g>
</g>
<g>
</g>
<g>
</g>
<g>
</g>
<g>
</g>
<g>
</g>
<g>
</g>
<g>
</g>
<g>
</g>
<g>
</g>
<g>
</g>
<g>
</g>
<g>
</g>
<g>
</g>
</svg>
